<svg width="16" height="16" viewBox="0 0 16 16" fill="none" xmlns="http://www.w3.org/2000/svg">
<path opacity="0.4" d="M14.2463 7.59341V11.5867C14.2463 13.4267 12.7529 14.9201 10.9129 14.9201H5.08626C3.24626 14.9201 1.75293 13.4267 1.75293 11.5867V7.64007C2.2596 8.18674 2.9796 8.50007 3.7596 8.50007C4.5996 8.50007 5.40626 8.08007 5.91293 7.40674C6.36626 8.08007 7.1396 8.50007 7.9996 8.50007C8.85293 8.50007 9.61293 8.10007 10.0729 7.4334C10.5863 8.0934 11.3796 8.50007 12.2063 8.50007C13.0129 8.50007 13.7463 8.17341 14.2463 7.59341Z" fill="#008A2F"/>
<path d="M9.99291 0.833252H5.99291L5.49958 5.73992C5.45958 6.19325 5.52624 6.61992 5.69291 7.00659C6.07958 7.91325 6.98624 8.49992 7.99958 8.49992C9.02624 8.49992 9.91291 7.92659 10.3129 7.01325C10.4329 6.72659 10.5062 6.39325 10.5129 6.05325V5.92659L9.99291 0.833252Z" fill="#1F7C3F"/>
<path opacity="0.6" d="M14.9068 5.51325L14.7135 3.66659C14.4335 1.65325 13.5202 0.833252 11.5668 0.833252H9.00684L9.50017 5.83325C9.50684 5.89992 9.5135 5.97325 9.5135 6.09992C9.5535 6.44658 9.66017 6.76658 9.82017 7.05325C10.3002 7.93325 11.2335 8.49992 12.2068 8.49992C13.0935 8.49992 13.8935 8.10658 14.3935 7.41325C14.7935 6.87992 14.9735 6.20659 14.9068 5.51325Z" fill="#00802C"/>
<path opacity="0.6" d="M4.3931 0.833252C2.4331 0.833252 1.52643 1.65325 1.23977 3.68659L1.05977 5.51992C0.9931 6.23325 1.18643 6.92658 1.60643 7.46658C2.1131 8.12658 2.8931 8.49992 3.75977 8.49992C4.7331 8.49992 5.66643 7.93325 6.13977 7.06659C6.3131 6.76659 6.42643 6.41992 6.45977 6.05992L6.97977 0.839919H4.3931V0.833252Z" fill="#00802C"/>
<path d="M7.56675 11.1067C6.72008 11.1934 6.08008 11.9134 6.08008 12.7667V14.9201H9.91341V13.0001C9.92008 11.6067 9.10008 10.9467 7.56675 11.1067Z" fill="#00802C"/>
</svg>
